<mxfile host="app.diagrams.net" modified="2021-01-05T14:17:46.074Z" agent="5.0 (Windows NT 10.0; Win64; x64) AppleWebKit/537.36 (KHTML, like Gecko) Chrome/87.0.4280.88 Safari/537.36" etag="iuCxa_yf45eY0f0xb8vq" version="14.1.8" type="github">
  <diagram id="R2lEEEUBdFMjLlhIrx00" name="Page-1">
    <mxGraphModel dx="1422" dy="762" grid="1" gridSize="10" guides="1" tooltips="1" connect="1" arrows="1" fold="1" page="1" pageScale="1" pageWidth="850" pageHeight="1100" math="0" shadow="0" extFonts="Permanent Marker^https://fonts.googleapis.com/css?family=Permanent+Marker">
      <root>
        <mxCell id="0" />
        <mxCell id="1" parent="0" />
        <mxCell id="c_uoPbWmfXPSQ4uwjyFJ-5" value="User" style="swimlane;fontStyle=0;childLayout=stackLayout;horizontal=1;startSize=26;fillColor=#fff2cc;horizontalStack=0;resizeParent=1;resizeParentMax=0;resizeLast=0;collapsible=1;marginBottom=0;direction=east;strokeColor=#d6b656;" vertex="1" parent="1">
          <mxGeometry x="80" y="120" width="200" height="188" as="geometry" />
        </mxCell>
        <mxCell id="c_uoPbWmfXPSQ4uwjyFJ-7" value="field: role" style="text;strokeColor=none;fillColor=none;align=left;verticalAlign=top;spacingLeft=4;spacingRight=4;overflow=hidden;rotatable=0;points=[[0,0.5],[1,0.5]];portConstraint=eastwest;" vertex="1" parent="c_uoPbWmfXPSQ4uwjyFJ-5">
          <mxGeometry y="26" width="200" height="26" as="geometry" />
        </mxCell>
        <mxCell id="c_uoPbWmfXPSQ4uwjyFJ-10" value="field: name&#xa;" style="text;strokeColor=none;fillColor=none;align=left;verticalAlign=top;spacingLeft=4;spacingRight=4;overflow=hidden;rotatable=0;points=[[0,0.5],[1,0.5]];portConstraint=eastwest;" vertex="1" parent="c_uoPbWmfXPSQ4uwjyFJ-5">
          <mxGeometry y="52" width="200" height="26" as="geometry" />
        </mxCell>
        <mxCell id="c_uoPbWmfXPSQ4uwjyFJ-8" value="field: email&#xa;" style="text;strokeColor=none;fillColor=none;align=left;verticalAlign=top;spacingLeft=4;spacingRight=4;overflow=hidden;rotatable=0;points=[[0,0.5],[1,0.5]];portConstraint=eastwest;" vertex="1" parent="c_uoPbWmfXPSQ4uwjyFJ-5">
          <mxGeometry y="78" width="200" height="22" as="geometry" />
        </mxCell>
        <mxCell id="c_uoPbWmfXPSQ4uwjyFJ-13" value="field: password" style="text;strokeColor=none;fillColor=none;align=left;verticalAlign=top;spacingLeft=4;spacingRight=4;overflow=hidden;rotatable=0;points=[[0,0.5],[1,0.5]];portConstraint=eastwest;" vertex="1" parent="c_uoPbWmfXPSQ4uwjyFJ-5">
          <mxGeometry y="100" width="200" height="22" as="geometry" />
        </mxCell>
        <mxCell id="c_uoPbWmfXPSQ4uwjyFJ-14" value="field: password Confirm&#xa;" style="text;strokeColor=none;fillColor=none;align=left;verticalAlign=top;spacingLeft=4;spacingRight=4;overflow=hidden;rotatable=0;points=[[0,0.5],[1,0.5]];portConstraint=eastwest;" vertex="1" parent="c_uoPbWmfXPSQ4uwjyFJ-5">
          <mxGeometry y="122" width="200" height="22" as="geometry" />
        </mxCell>
        <mxCell id="c_uoPbWmfXPSQ4uwjyFJ-15" value="field: passwordChangedAt" style="text;strokeColor=none;fillColor=none;align=left;verticalAlign=top;spacingLeft=4;spacingRight=4;overflow=hidden;rotatable=0;points=[[0,0.5],[1,0.5]];portConstraint=eastwest;" vertex="1" parent="c_uoPbWmfXPSQ4uwjyFJ-5">
          <mxGeometry y="144" width="200" height="22" as="geometry" />
        </mxCell>
        <mxCell id="c_uoPbWmfXPSQ4uwjyFJ-11" value="field: active&#xa;" style="text;strokeColor=none;fillColor=none;align=left;verticalAlign=top;spacingLeft=4;spacingRight=4;overflow=hidden;rotatable=0;points=[[0,0.5],[1,0.5]];portConstraint=eastwest;" vertex="1" parent="c_uoPbWmfXPSQ4uwjyFJ-5">
          <mxGeometry y="166" width="200" height="22" as="geometry" />
        </mxCell>
        <mxCell id="c_uoPbWmfXPSQ4uwjyFJ-16" value="Project" style="swimlane;fontStyle=0;childLayout=stackLayout;horizontal=1;startSize=26;fillColor=#fff2cc;horizontalStack=0;resizeParent=1;resizeParentMax=0;resizeLast=0;collapsible=1;marginBottom=0;strokeColor=#d6b656;" vertex="1" parent="1">
          <mxGeometry x="560" y="120" width="200" height="182" as="geometry" />
        </mxCell>
        <mxCell id="c_uoPbWmfXPSQ4uwjyFJ-17" value="field: project name" style="text;strokeColor=none;fillColor=none;align=left;verticalAlign=top;spacingLeft=4;spacingRight=4;overflow=hidden;rotatable=0;points=[[0,0.5],[1,0.5]];portConstraint=eastwest;" vertex="1" parent="c_uoPbWmfXPSQ4uwjyFJ-16">
          <mxGeometry y="26" width="200" height="26" as="geometry" />
        </mxCell>
        <mxCell id="c_uoPbWmfXPSQ4uwjyFJ-18" value="field: date" style="text;strokeColor=none;fillColor=none;align=left;verticalAlign=top;spacingLeft=4;spacingRight=4;overflow=hidden;rotatable=0;points=[[0,0.5],[1,0.5]];portConstraint=eastwest;" vertex="1" parent="c_uoPbWmfXPSQ4uwjyFJ-16">
          <mxGeometry y="52" width="200" height="26" as="geometry" />
        </mxCell>
        <mxCell id="c_uoPbWmfXPSQ4uwjyFJ-19" value="field: quote" style="text;strokeColor=none;fillColor=none;align=left;verticalAlign=top;spacingLeft=4;spacingRight=4;overflow=hidden;rotatable=0;points=[[0,0.5],[1,0.5]];portConstraint=eastwest;" vertex="1" parent="c_uoPbWmfXPSQ4uwjyFJ-16">
          <mxGeometry y="78" width="200" height="26" as="geometry" />
        </mxCell>
        <mxCell id="c_uoPbWmfXPSQ4uwjyFJ-20" value="field: bill ID" style="text;strokeColor=none;fillColor=none;align=left;verticalAlign=top;spacingLeft=4;spacingRight=4;overflow=hidden;rotatable=0;points=[[0,0.5],[1,0.5]];portConstraint=eastwest;" vertex="1" parent="c_uoPbWmfXPSQ4uwjyFJ-16">
          <mxGeometry y="104" width="200" height="26" as="geometry" />
        </mxCell>
        <mxCell id="c_uoPbWmfXPSQ4uwjyFJ-22" value="field: status" style="text;strokeColor=none;fillColor=none;align=left;verticalAlign=top;spacingLeft=4;spacingRight=4;overflow=hidden;rotatable=0;points=[[0,0.5],[1,0.5]];portConstraint=eastwest;" vertex="1" parent="c_uoPbWmfXPSQ4uwjyFJ-16">
          <mxGeometry y="130" width="200" height="26" as="geometry" />
        </mxCell>
        <mxCell id="c_uoPbWmfXPSQ4uwjyFJ-21" value="field : project type" style="text;strokeColor=none;fillColor=none;align=left;verticalAlign=top;spacingLeft=4;spacingRight=4;overflow=hidden;rotatable=0;points=[[0,0.5],[1,0.5]];portConstraint=eastwest;" vertex="1" parent="c_uoPbWmfXPSQ4uwjyFJ-16">
          <mxGeometry y="156" width="200" height="26" as="geometry" />
        </mxCell>
        <mxCell id="c_uoPbWmfXPSQ4uwjyFJ-23" value="Bill" style="swimlane;fontStyle=0;childLayout=stackLayout;horizontal=1;startSize=26;fillColor=#fff2cc;horizontalStack=0;resizeParent=1;resizeParentMax=0;resizeLast=0;collapsible=1;marginBottom=0;strokeColor=#d6b656;" vertex="1" parent="1">
          <mxGeometry x="320" y="440" width="200" height="182" as="geometry" />
        </mxCell>
        <mxCell id="c_uoPbWmfXPSQ4uwjyFJ-24" value="field: date" style="text;strokeColor=none;fillColor=none;align=left;verticalAlign=top;spacingLeft=4;spacingRight=4;overflow=hidden;rotatable=0;points=[[0,0.5],[1,0.5]];portConstraint=eastwest;" vertex="1" parent="c_uoPbWmfXPSQ4uwjyFJ-23">
          <mxGeometry y="26" width="200" height="26" as="geometry" />
        </mxCell>
        <mxCell id="c_uoPbWmfXPSQ4uwjyFJ-25" value="field: number" style="text;strokeColor=none;fillColor=none;align=left;verticalAlign=top;spacingLeft=4;spacingRight=4;overflow=hidden;rotatable=0;points=[[0,0.5],[1,0.5]];portConstraint=eastwest;" vertex="1" parent="c_uoPbWmfXPSQ4uwjyFJ-23">
          <mxGeometry y="52" width="200" height="26" as="geometry" />
        </mxCell>
        <mxCell id="c_uoPbWmfXPSQ4uwjyFJ-26" value="field: price" style="text;strokeColor=none;fillColor=none;align=left;verticalAlign=top;spacingLeft=4;spacingRight=4;overflow=hidden;rotatable=0;points=[[0,0.5],[1,0.5]];portConstraint=eastwest;" vertex="1" parent="c_uoPbWmfXPSQ4uwjyFJ-23">
          <mxGeometry y="78" width="200" height="26" as="geometry" />
        </mxCell>
        <mxCell id="c_uoPbWmfXPSQ4uwjyFJ-28" value="field: User ID" style="text;strokeColor=none;fillColor=none;align=left;verticalAlign=top;spacingLeft=4;spacingRight=4;overflow=hidden;rotatable=0;points=[[0,0.5],[1,0.5]];portConstraint=eastwest;" vertex="1" parent="c_uoPbWmfXPSQ4uwjyFJ-23">
          <mxGeometry y="104" width="200" height="26" as="geometry" />
        </mxCell>
        <mxCell id="c_uoPbWmfXPSQ4uwjyFJ-29" value="field: Project ID" style="text;strokeColor=none;fillColor=none;align=left;verticalAlign=top;spacingLeft=4;spacingRight=4;overflow=hidden;rotatable=0;points=[[0,0.5],[1,0.5]];portConstraint=eastwest;" vertex="1" parent="c_uoPbWmfXPSQ4uwjyFJ-23">
          <mxGeometry y="130" width="200" height="26" as="geometry" />
        </mxCell>
        <mxCell id="c_uoPbWmfXPSQ4uwjyFJ-27" value="field: Endorsement (Boolean)" style="text;strokeColor=none;fillColor=none;align=left;verticalAlign=top;spacingLeft=4;spacingRight=4;overflow=hidden;rotatable=0;points=[[0,0.5],[1,0.5]];portConstraint=eastwest;" vertex="1" parent="c_uoPbWmfXPSQ4uwjyFJ-23">
          <mxGeometry y="156" width="200" height="26" as="geometry" />
        </mxCell>
        <mxCell id="c_uoPbWmfXPSQ4uwjyFJ-30" value="" style="shape=ext;double=1;rounded=0;whiteSpace=wrap;html=1;fillColor=#f5f5f5;strokeColor=#666666;fontColor=#333333;" vertex="1" parent="1">
          <mxGeometry x="40" y="720" width="160" height="120" as="geometry" />
        </mxCell>
        <mxCell id="c_uoPbWmfXPSQ4uwjyFJ-31" value="&lt;b&gt;&lt;font face=&quot;Lucida Console&quot; style=&quot;font-size: 15px&quot;&gt;P&lt;/font&gt;&lt;/b&gt;" style="ellipse;whiteSpace=wrap;html=1;aspect=fixed;fillColor=#d5e8d4;strokeColor=#82b366;" vertex="1" parent="1">
          <mxGeometry x="60" y="740" width="30" height="30" as="geometry" />
        </mxCell>
        <mxCell id="c_uoPbWmfXPSQ4uwjyFJ-32" value="&lt;p style=&quot;line-height: 80% ; font-size: 15px&quot;&gt;Parent&lt;/p&gt;" style="text;html=1;fontSize=15;fontStyle=1;verticalAlign=middle;align=center;fontFamily=Lucida Console;fontColor=#333333;" vertex="1" parent="1">
          <mxGeometry x="110" y="735" width="70" height="40" as="geometry" />
        </mxCell>
        <mxCell id="c_uoPbWmfXPSQ4uwjyFJ-33" value="&lt;b&gt;&lt;font face=&quot;Lucida Console&quot; style=&quot;font-size: 15px&quot;&gt;C&lt;/font&gt;&lt;/b&gt;" style="ellipse;whiteSpace=wrap;html=1;aspect=fixed;fillColor=#d5e8d4;strokeColor=#82b366;" vertex="1" parent="1">
          <mxGeometry x="60" y="790" width="30" height="30" as="geometry" />
        </mxCell>
        <mxCell id="c_uoPbWmfXPSQ4uwjyFJ-34" value="&lt;p style=&quot;line-height: 80% ; font-size: 15px&quot;&gt;Child&lt;/p&gt;" style="text;html=1;fontSize=15;fontStyle=1;verticalAlign=middle;align=center;fontFamily=Lucida Console;fontColor=#333333;" vertex="1" parent="1">
          <mxGeometry x="110" y="785" width="70" height="40" as="geometry" />
        </mxCell>
        <mxCell id="c_uoPbWmfXPSQ4uwjyFJ-35" value="" style="endArrow=classic;html=1;fontFamily=Lucida Console;fontSize=15;fontColor=#333333;strokeWidth=5;fillColor=#f8cecc;strokeColor=#b85450;" edge="1" parent="1">
          <mxGeometry width="50" height="50" relative="1" as="geometry">
            <mxPoint x="540" y="220" as="sourcePoint" />
            <mxPoint x="300" y="220" as="targetPoint" />
          </mxGeometry>
        </mxCell>
        <mxCell id="c_uoPbWmfXPSQ4uwjyFJ-36" value="&lt;b&gt;&lt;font face=&quot;Lucida Console&quot; style=&quot;font-size: 15px&quot;&gt;P&lt;/font&gt;&lt;/b&gt;" style="ellipse;whiteSpace=wrap;html=1;aspect=fixed;fillColor=#d5e8d4;strokeColor=#82b366;" vertex="1" parent="1">
          <mxGeometry x="300" y="170" width="30" height="30" as="geometry" />
        </mxCell>
        <mxCell id="c_uoPbWmfXPSQ4uwjyFJ-37" value="&lt;b&gt;&lt;font face=&quot;Lucida Console&quot; style=&quot;font-size: 15px&quot;&gt;C&lt;/font&gt;&lt;/b&gt;" style="ellipse;whiteSpace=wrap;html=1;aspect=fixed;fillColor=#d5e8d4;strokeColor=#82b366;" vertex="1" parent="1">
          <mxGeometry x="510" y="170" width="30" height="30" as="geometry" />
        </mxCell>
        <mxCell id="c_uoPbWmfXPSQ4uwjyFJ-40" value="" style="endArrow=classic;html=1;fontFamily=Lucida Console;fontSize=15;fontColor=#333333;strokeWidth=5;fillColor=#f8cecc;strokeColor=#b85450;" edge="1" parent="1">
          <mxGeometry width="50" height="50" relative="1" as="geometry">
            <mxPoint x="300" y="530" as="sourcePoint" />
            <mxPoint x="180" y="320" as="targetPoint" />
          </mxGeometry>
        </mxCell>
        <mxCell id="c_uoPbWmfXPSQ4uwjyFJ-41" value="&lt;b&gt;&lt;font face=&quot;Lucida Console&quot; style=&quot;font-size: 15px&quot;&gt;P&lt;/font&gt;&lt;/b&gt;" style="ellipse;whiteSpace=wrap;html=1;aspect=fixed;fillColor=#d5e8d4;strokeColor=#82b366;" vertex="1" parent="1">
          <mxGeometry x="105" y="330" width="30" height="30" as="geometry" />
        </mxCell>
        <mxCell id="c_uoPbWmfXPSQ4uwjyFJ-47" value="&lt;b&gt;&lt;font face=&quot;Lucida Console&quot; style=&quot;font-size: 15px&quot;&gt;C&lt;/font&gt;&lt;/b&gt;" style="ellipse;whiteSpace=wrap;html=1;aspect=fixed;fillColor=#d5e8d4;strokeColor=#82b366;" vertex="1" parent="1">
          <mxGeometry x="270" y="550" width="30" height="30" as="geometry" />
        </mxCell>
        <mxCell id="c_uoPbWmfXPSQ4uwjyFJ-48" value="&lt;b&gt;&lt;font face=&quot;Lucida Console&quot; style=&quot;font-size: 15px&quot;&gt;C&lt;/font&gt;&lt;/b&gt;" style="ellipse;whiteSpace=wrap;html=1;aspect=fixed;fillColor=#d5e8d4;strokeColor=#82b366;" vertex="1" parent="1">
          <mxGeometry x="540" y="550" width="30" height="30" as="geometry" />
        </mxCell>
        <mxCell id="c_uoPbWmfXPSQ4uwjyFJ-49" value="&lt;b&gt;&lt;font face=&quot;Lucida Console&quot; style=&quot;font-size: 15px&quot;&gt;P&lt;/font&gt;&lt;/b&gt;" style="ellipse;whiteSpace=wrap;html=1;aspect=fixed;fillColor=#d5e8d4;strokeColor=#82b366;" vertex="1" parent="1">
          <mxGeometry x="700" y="330" width="30" height="30" as="geometry" />
        </mxCell>
        <mxCell id="c_uoPbWmfXPSQ4uwjyFJ-52" value="&lt;h1&gt;&lt;font style=&quot;font-size: 20px&quot;&gt;1:FEW&lt;/font&gt;&lt;/h1&gt;&lt;p&gt;&lt;font style=&quot;font-size: 15px&quot;&gt;Double way Referencing&lt;/font&gt;&lt;/p&gt;&lt;p style=&quot;font-size: 30px&quot;&gt;&lt;br&gt;&lt;/p&gt;" style="text;html=1;strokeColor=none;fillColor=none;spacing=5;spacingTop=-20;whiteSpace=wrap;overflow=hidden;rounded=0;fontFamily=Lucida Console;fontSize=15;fontColor=#333333;" vertex="1" parent="1">
          <mxGeometry x="620" y="410" width="210" height="90" as="geometry" />
        </mxCell>
        <mxCell id="c_uoPbWmfXPSQ4uwjyFJ-53" value="&lt;h1&gt;&lt;font style=&quot;font-size: 20px&quot;&gt;1:MANY&lt;/font&gt;&lt;/h1&gt;&lt;p&gt;&lt;font style=&quot;font-size: 15px&quot;&gt;Parent Referencing&lt;/font&gt;&lt;/p&gt;&lt;p style=&quot;font-size: 30px&quot;&gt;&lt;br&gt;&lt;/p&gt;" style="text;html=1;strokeColor=none;fillColor=none;spacing=5;spacingTop=-20;whiteSpace=wrap;overflow=hidden;rounded=0;fontFamily=Lucida Console;fontSize=15;fontColor=#333333;" vertex="1" parent="1">
          <mxGeometry x="320" y="80" width="210" height="90" as="geometry" />
        </mxCell>
        <mxCell id="c_uoPbWmfXPSQ4uwjyFJ-54" value="&lt;h1&gt;&lt;font style=&quot;font-size: 20px&quot;&gt;1:MANY&lt;/font&gt;&lt;/h1&gt;&lt;p&gt;&lt;font style=&quot;font-size: 15px&quot;&gt;Parent Referencing&lt;/font&gt;&lt;/p&gt;&lt;p style=&quot;font-size: 30px&quot;&gt;&lt;br&gt;&lt;/p&gt;" style="text;html=1;strokeColor=none;fillColor=none;spacing=5;spacingTop=-20;whiteSpace=wrap;overflow=hidden;rounded=0;fontFamily=Lucida Console;fontSize=15;fontColor=#333333;" vertex="1" parent="1">
          <mxGeometry x="40" y="410" width="210" height="90" as="geometry" />
        </mxCell>
        <mxCell id="c_uoPbWmfXPSQ4uwjyFJ-55" value="" style="endArrow=classic;startArrow=classic;html=1;strokeWidth=5;fontFamily=Lucida Console;fontSize=15;fontColor=#333333;fillColor=#f8cecc;strokeColor=#b85450;" edge="1" parent="1">
          <mxGeometry width="50" height="50" relative="1" as="geometry">
            <mxPoint x="530" y="520" as="sourcePoint" />
            <mxPoint x="660" y="320" as="targetPoint" />
          </mxGeometry>
        </mxCell>
      </root>
    </mxGraphModel>
  </diagram>
</mxfile>
